<?xml version="1.0" standalone="no"?><!DOCTYPE svg PUBLIC "-//W3C//DTD SVG 1.1//EN" "http://www.w3.org/Graphics/SVG/1.1/DTD/svg11.dtd"><svg t="1589534930680" class="icon" viewBox="0 0 1025 1024" version="1.1" xmlns="http://www.w3.org/2000/svg" p-id="2111" xmlns:xlink="http://www.w3.org/1999/xlink" width="200.1953125" height="200"><defs><style type="text/css"></style></defs><path d="M513.236907 98.133333l136.533333 228.266667 14.933333 23.466667 27.733334 6.4 260.266666 59.733333-174.933333 200.533333-17.066667 21.333334 2.133334 27.733333 23.466666 266.666667-245.333333-104.533334-27.733333-12.8-25.6 10.666667-245.333334 104.533333 23.466667-266.666666 2.133333-27.733334-17.066666-21.333333-174.933334-200.533333 260.266667-59.733334 27.733333-6.4 14.933334-23.466666L513.236907 98.133333M513.236907 21.333333c-17.066667 0-34.133333 10.666667-44.8 29.866667L321.236907 294.4l-277.333334 64c-44.8 10.666667-57.6 53.333333-27.733333 87.466667l187.733333 213.333333-25.6 283.733333c-4.266667 36.266667 19.2 59.733333 49.066667 59.733334 8.533333 0 17.066667-2.133333 25.6-6.4L513.236907 885.333333l260.266666 113.066667c8.533333 4.266667 17.066667 6.4 25.6 6.4 29.866667 0 51.2-23.466667 49.066667-59.733333L822.57024 661.333333l187.733333-213.333333c29.866667-34.133333 14.933333-76.8-27.733333-87.466667l-277.333333-64-147.2-245.333333C547.37024 32 530.303573 21.333333 513.236907 21.333333z" fill="#1296db" p-id="2112"></path></svg>